# xmcd
#
# Track frame offsets:
#	150
#	11814
#	23827
#	37504
#	52442
#	69407
#	83893
#	92792
#	107403
#	121101
#
# Disc length: 1791 seconds
#
# Revision: 0
# Processed by: cddbd v1.5.2PL0 Copyright (c) Steve Scherf et al.
# Submitted via: EZCDAudioConverter 3.1.0.1
#
DISCID=7506fd0a
DTITLE=Donna Hazard - My Turn
DYEAR=1981
DGENRE=Country
TTITLE0=Love Never Hurt So Good
TTITLE1=Sad Songs And Waltzes
TTITLE2=I Don't Want To Dance With You /No More)
TTITLE3=I'm Your Lady
TTITLE4=My Turn
TTITLE5=A Lady Askin'
TTITLE6=Slow Texas Dancing
TTITLE7=Go Home And Go To Pieces
TTITLE8=When He Touched Me
TTITLE9=Tail Winds
EXTD=
EXTT0=
EXTT1=
EXTT2=
EXTT3=
EXTT4=
EXTT5=
EXTT6=
EXTT7=
EXTT8=
EXTT9=
PLAYORDER=
